<mxfile host="app.diagrams.net" modified="2023-07-14T11:20:19.978Z" agent="Mozilla/5.0 (Windows NT 10.0; Win64; x64) AppleWebKit/537.36 (KHTML, like Gecko) Chrome/114.0.0.0 Safari/537.36" version="21.6.2" etag="02xCNgd6_gBRO_N44FVS" type="github">
  <diagram name="第 1 页" id="sJ_BQiUeeyOr0J7m5Eyt">
    <mxGraphModel>
      <root>
        <mxCell id="0" />
        <mxCell id="1" parent="0" />
      </root>
    </mxGraphModel>
  </diagram>
</mxfile>
